<svg xmlns="http://www.w3.org/2000/svg" xmlns:xlink="http://www.w3.org/1999/xlink" width="300" height="300" viewBox="78526.28971828659 4706140.168463139 7715.571261201243 7962.06776370015" preserveAspectRatio="xMinYMin meet"><g transform="matrix(1,0,0,-1,0,9420242.404689979)"><path fill-rule="evenodd" fill="#66cc99" stroke="#555555" stroke-width="53.080451758001" opacity="0.6" d="M 79053.29822246124,4711253.833611836 L 79167.6112455211,4711647.407533671 L 79514.11781708445,4711958.758246876 L 80205.39761911528,4712702.201465213 L 80518.39498437324,4713315.230134081 L 80877.11466470498,4713668.800425887 L 81045.31689672546,4713790.193252367 L 81080.07872141403,4713807.344828184 L 81252.41786330433,4713773.598800986 L 81336.16131782626,4713647.435947052 L 81253.76880867938,4713117.484516233 L 82469.8825962104,4713030.57526099 L 82500.91916692117,4713237.238426237 L 83021.46378770478,4713673.869953649 L 83043.32087717109,4713715.855411155 L 83072.65735828129,4713708.688503855 L 83081.1213055464,4713706.496492759 L 83095.8399204568,4713696.4123839475 L 83581.17095124173,4713159.090375157 L 83604.45177601479,4713149.275709502 L 83611.82099264066,4713143.641936382 L 83717.23006733747,4713047.571745587 L 84629.14849247725,4712922.198649679 L 84644.98536006176,4712935.842871334 L 84727.56598406445,4712968.96503935 L 84790.1203313133,4712919.555644378 L 84788.95184645329,4712855.539963157 L 85434.72538522526,4711948.330937408 L 85557.41030307097,4711905.664517534 L 85731.62139496095,4711779.624895868 L 85744.50595233162,4711768.200038919 L 85908.2411412457,4711581.630042039 L 85946.96958083224,4711510.200963688 L 85623.79780285065,4711287.548634602 L 85465.92181607788,4710513.492273851 L 85471.04771142075,4710494.105652328 L 85431.26599400767,4710442.865881779 L 85188.18214424507,4709637.31398044 L 85456.4621929526,4709237.369185872 L 85437.34830231126,4708666.714124507 L 85582.46952145219,4708410.193227747 L 85432.66269354601,4708323.949205713 L 85368.2143073641,4708275.106648986 L 85117.34765199402,4707974.388628208 L 84999.63654398738,4707924.044276102 L 84635.84470603646,4707494.63250873 L 84606.46466714397,4707395.616032394 L 84602.77178510884,4707378.085599832 L 84528.9657241006,4707132.851325081 L 84338.89597528214,4706983.83391838 L 83421.89963335005,4707005.422160429 L 82572.50673568081,4706435.059861794 L 82544.88787776337,4706445.091817638 L 81944.48039928332,4706556.071163325 L 81821.2135272971,4706542.9588058945 L 81415.2772721425,4706553.094018615 L 81355.41138000839,4706557.535076595 L 81261.71317402761,4706565.155066993 L 81241.65472042338,4706578.291551085 L 80891.1135213534,4706887.929118339 L 80335.7174385827,4707275.430709049 L 80035.85680349477,4707406.802723899 L 79542.23004969583,4707630.534576535 L 79523.44389395567,4707947.988829551 L 78833.58469813422,4708562.19225689 L 78821.18111694217,4708564.094635123 L 78832.334210706,4708618.724773729 L 78932.17117471957,4708735.656952028 L 79046.44214269267,4709361.7738398565 L 79047.75129331807,4709385.205764416 L 79049.81060876334,4709486.316822267 L 79315.01434499076,4709805.816879561 L 79127.61055858228,4710558.292232267 L 79149.40303138708,4710722.69898609 L 79053.29822246124,4711253.833611836 z" /></g></svg>