<svg xmlns="http://www.w3.org/2000/svg" xmlns:xlink="http://www.w3.org/1999/xlink" width="300" height="300" viewBox="378477.1411564029 -58908.72030888192 1499219.6119574024 2001365.4329497865" preserveAspectRatio="xMinYMin meet"><g transform="matrix(1,0,0,-1,0,1883547.9923320226)"><path fill-rule="evenodd" fill="#66cc99" stroke="#555555" stroke-width="13342.436219665244" opacity="0.6" d="M 1803572.1074489984,631466.2141521939 L 1782440.1843623836,617677.0112172251 L 1760387.42282986,683318.4595109689 L 1729130.363037699,718510.3819177875 L 1692239.8304905943,680021.1769056879 L 1474509.2328460834,681910.1271980167 L 1476017.0481723072,612529.8827077163 L 1541460.8436144656,601153.7876367638 L 1537735.3767004348,558643.8244369456 L 1515389.9122428938,570107.3667894339 L 1452535.0031881584,551785.8166079241 L 1451984.7234288554,471242.2288012324 L 1501483.3641539998,430763.20228084235 L 1518893.5659033211,367220.79465982725 L 1516165.2681949292,319114.0182463977 L 1464856.8159314445,15215.925355924992 L 1409443.1161374738,74407.89252301224 L 1376217.2603749945,77170.19413938106 L 1448461.99372257,189682.2944700427 L 1363267.6996949532,241807.27017968346 L 1296400.728726764,232430.58587165328 L 1256227.339112713,251648.43107258622 L 1194856.4045469286,222477.4702989274 L 1112026.9820540955,236415.5211080002 L 1046521.2640013637,352385.6711586248 L 995003.9314127153,380879.9052750567 L 959470.8509523477,433071.28730012337 L 885433.1188014748,485441.0503795142 L 855749.7566511356,474952.40454340365 L 808060.9332997624,501148.6556858039 L 753393.4934502512,537806.2911840954 L 721740.8161912039,520205.22070769663 L 627155.8765948087,535595.6001548932 L 600017.6582571091,583270.9813501278 L 579219.5098038244,581520.7598105131 L 467675.92375098064,644998.2985177925 L 452601.7868212098,679484.1510303894 L 494279.9520378696,687705.6492768603 L 489493.4015346768,743289.394493439 L 515788.7054816848,783375.3348498343 L 571118.4485206625,790624.3835975174 L 618259.2788321212,860096.9225038586 L 661056.5575595666,918050.841721969 L 620161.8988876683,944567.8202795739 L 641423.6659155721,1008761.1771890371 L 616894.9369826457,1110227.489308402 L 640854.0950139607,1139171.2412581171 L 623952.1845208444,1232967.4450605034 L 579571.3370676015,1292330.126792343 L 594204.4346168868,1346077.1236955442 L 629764.0158941024,1337832.0868105572 L 650846.7397574594,1370593.681004501 L 625762.8102344115,1436049.8470068844 L 639284.945443482,1452131.2712861556 L 696199.8069289059,1448162.7441942939 L 779273.0636861828,1524898.9754911743 L 824584.328176882,1536443.5039875035 L 825840.7822261327,1573035.1243529143 L 846470.580800721,1666435.229479719 L 909380.8160306751,1717545.637452987 L 978232.507677551,1719527.544519798 L 986930.5416650812,1742579.4365905053 L 1072375.181294311,1733426.473023082 L 1158043.024169277,1789608.9666177367 L 1200370.493104226,1814601.214174858 L 1252674.4289005038,1868332.0669760976 L 1291293.5732434387,1861910.70414798 L 1320173.9508189405,1833075.2445744511 L 1299388.5472199672,1795569.2441499094 L 1229458.9472880764,1776410.8496099664 L 1202132.89621327,1720886.5294344309 L 1159982.7511549257,1688925.0505217025 L 1128349.175022533,1647672.8045136717 L 1115208.3390378263,1568685.8824008957 L 1084915.4324883288,1503920.3429501518 L 1141689.6066456195,1496673.6138183423 L 1155984.2070807004,1445863.830852191 L 1180380.327244862,1421618.3319310646 L 1189270.6111245854,1377105.8660547328 L 1176326.257105166,1336102.9318560977 L 1180297.046937528,1313025.2003562008 L 1207519.822124928,1303909.7127227983 L 1234011.3066006992,1265425.2090477315 L 1376190.8300932106,1276914.0274666343 L 1440618.6707164776,1263302.7817015175 L 1519504.4727410935,1168542.9604643763 L 1564289.9656109684,1180823.9269677731 L 1644424.6446090427,1175699.7294197595 L 1707709.4497121035,1189115.9729614137 L 1747340.3891641821,1170476.1465280268 L 1727971.9054729985,1110280.1302612612 L 1703479.3367369599,1072654.8545835132 L 1695486.3082184861,992787.367768296 L 1718558.4189346246,919041.2359284724 L 1750594.670442913,886201.799109282 L 1754619.6812352543,861298.835097441 L 1698259.6078990917,805547.0578490373 L 1738995.166736784,781240.2041208164 L 1768960.4311422398,742455.5418604879 L 1803572.1074489984,631466.2141521939 z" /></g></svg>